<?xml version="1.0" encoding="UTF-8"?>
<svg width="800" height="600" viewBox="0 0 800 600" fill="none" xmlns="http://www.w3.org/2000/svg">
    <!-- Background Elements -->
    <circle cx="400" cy="300" r="250" fill="url(#gradient1)" opacity="0.1"/>
    <circle cx="400" cy="300" r="200" fill="url(#gradient2)" opacity="0.1"/>
    
    <!-- Lab Flask -->
    <path d="M350 150v200l-50 100h200l-50-100V150" stroke="url(#gradient3)" stroke-width="8" fill="none"/>
    <path d="M300 450c0 0 100-80 200 0" stroke="url(#gradient3)" stroke-width="8" fill="none"/>
    
    <!-- Flask Liquid -->
    <path d="M350 350l-30 60h160l-30-60" fill="url(#gradient4)" opacity="0.6"/>
    
    <!-- Flask Top -->
    <rect x="340" y="130" width="120" height="20" fill="url(#gradient3)"/>
    
    <!-- Bubbles -->
    <circle cx="360" cy="380" r="10" fill="#00bcd4" opacity="0.6">
        <animate attributeName="cy" from="380" to="340" dur="2s" repeatCount="indefinite"/>
    </circle>
    <circle cx="390" cy="400" r="8" fill="#00bcd4" opacity="0.6">
        <animate attributeName="cy" from="400" to="360" dur="1.5s" repeatCount="indefinite"/>
    </circle>
    <circle cx="420" cy="390" r="12" fill="#00bcd4" opacity="0.6">
        <animate attributeName="cy" from="390" to="350" dur="2.5s" repeatCount="indefinite"/>
    </circle>
    
    <!-- Gradients -->
    <defs>
        <linearGradient id="gradient1" x1="0" y1="0" x2="800" y2="600">
            <stop offset="0%" stop-color="#00bcd4"/>
            <stop offset="100%" stop-color="#2196f3"/>
        </linearGradient>
        <linearGradient id="gradient2" x1="800" y1="0" x2="0" y2="600">
            <stop offset="0%" stop-color="#00bcd4"/>
            <stop offset="100%" stop-color="#2196f3"/>
        </linearGradient>
        <linearGradient id="gradient3" x1="0" y1="0" x2="0" y2="1">
            <stop offset="0%" stop-color="#00bcd4"/>
            <stop offset="100%" stop-color="#2196f3"/>
        </linearGradient>
        <linearGradient id="gradient4" x1="0" y1="0" x2="0" y2="1">
            <stop offset="0%" stop-color="#00bcd4" stop-opacity="0.8"/>
            <stop offset="100%" stop-color="#2196f3" stop-opacity="0.8"/>
        </linearGradient>
    </defs>
</svg> 